<?xml version="1.0" encoding="UTF-8" standalone="no"?>
<!DOCTYPE svg PUBLIC "-//W3C//DTD SVG 1.1//EN" "http://www.w3.org/Graphics/SVG/1.1/DTD/svg11.dtd">
<svg width="100%" height="100%" viewBox="0 0 324 572" version="1.1" xmlns="http://www.w3.org/2000/svg" xmlns:xlink="http://www.w3.org/1999/xlink" xml:space="preserve" xmlns:serif="http://www.serif.com/" style="fill-rule:evenodd;clip-rule:evenodd;stroke-linejoin:round;stroke-miterlimit:2;">
    <g>
        <path d="M322.866,544.562l0,-517.418c0,-14.411 -11.724,-26.144 -26.125,-26.144l-269.768,-0c-14.42,-0 -26.144,11.733 -26.144,26.144l0,517.417c0,14.41 11.733,26.134 26.144,26.134l269.768,0c14.401,0 26.125,-11.723 26.125,-26.133Zm-307.702,0l0,-517.418c0,-6.502 5.288,-11.8 11.8,-11.8l269.768,-0c6.502,-0 11.78,5.298 11.78,11.8l-0,517.417c-0,6.502 -5.288,11.79 -11.78,11.79l-269.759,0c-6.521,0.001 -11.809,-5.288 -11.809,-11.789Z" style="fill:rgb(76,81,109);fill-rule:nonzero;stroke:rgb(76,81,109);stroke-width:1px;"/>
        <path d="M301.37,482.386l0,-424.68c0,-1.979 -1.606,-3.586 -3.586,-3.586l-271.882,-0c-1.979,-0 -3.586,1.606 -3.586,3.586l-0,424.68c-0,1.979 1.606,3.586 3.586,3.586l271.881,0c1.98,-0 3.587,-1.607 3.587,-3.586Zm-16.735,-3.586l-245.584,0c-5.278,0 -9.562,-4.284 -9.562,-9.562l-0,-398.384c-0,-5.278 4.284,-9.562 9.562,-9.562l245.584,0c5.278,0 9.562,4.284 9.562,9.562l0,398.383c0.001,5.279 -4.283,9.563 -9.562,9.563Z" style="fill:rgb(76,81,109);fill-rule:nonzero;stroke:rgb(76,81,109);stroke-width:1px;"/>
        <path d="M146.237,37.452c4.581,1.387 10.442,2.085 17.442,2.085c7,0 12.871,-0.698 17.441,-2.085c3.061,-0.927 4.074,-2.964 3.997,-4.561c-0.057,-1.673 -1.329,-3.72 -4.666,-4.428c-3.682,-0.774 -9.582,-1.73 -16.716,-1.874l-1.415,-0.01c-6.665,0 -12.125,0.938 -15.5,1.721c-3.309,0.756 -4.542,2.831 -4.59,4.533c-0.057,1.626 0.966,3.701 4.007,4.619Zm17.413,-6.072c2.812,0.058 5.422,0.239 7.756,0.498c4.273,0.468 4.312,2.123 0.038,2.543c-2.372,0.229 -4.964,0.344 -7.765,0.344c-2.879,0 -5.537,-0.124 -7.966,-0.363c-4.38,-0.44 -4.647,-2.199 -0.66,-2.639c2.17,-0.239 4.609,-0.392 7.258,-0.392l1.339,0.009Z" style="fill:rgb(76,81,109);fill-rule:nonzero;stroke:rgb(76,81,109);stroke-width:1px;"/>
        <path d="M279.873,41.363c4.581,0 8.31,-3.729 8.31,-8.31c0,-4.571 -3.738,-8.3 -8.31,-8.3c-4.58,0 -8.31,3.729 -8.31,8.3c0,4.591 3.739,8.31 8.31,8.31Zm0,-11.828c1.941,0 3.528,1.578 3.528,3.519c0,1.951 -1.587,3.528 -3.528,3.528c-1.941,0 -3.528,-1.587 -3.528,-3.528c-0.001,-1.942 1.586,-3.519 3.528,-3.519Z" style="fill:rgb(76,81,109);fill-rule:nonzero;stroke:rgb(76,81,109);stroke-width:1px;"/>
        <path d="M62.049,501.349l-8.052,5.46c-0.239,0.162 -3.002,2.046 -3.002,2.046c-1.1,0.746 -1.377,2.229 -0.631,3.318c0.469,0.679 1.214,1.052 1.979,1.052c0.134,-0 0.258,-0.038 0.382,-0.086c0.201,-0.076 0.363,2.285 0.363,5.298l0,5.441c0,1.319 1.081,2.391 2.391,2.391l15.463,-0c1.31,-0 2.391,-1.071 2.391,-2.391l0,-5.47c0,-3.022 0.669,-5.184 1.482,-5.374c0.478,-0.115 0.899,-0.373 1.214,-0.823c0.765,-1.08 0.507,-2.572 -0.583,-3.337l-10.672,-7.497c-0.803,-0.583 -1.884,-0.583 -2.725,-0.028Zm1.157,20.147c-2.955,0 -5.345,-2.581 -5.345,-5.766c-0,-3.185 1.233,-6.599 2.754,-7.631c1.521,-1.033 3.911,-1.052 5.345,-0.048c1.425,1.004 2.582,4.418 2.582,7.631c-0,3.213 -2.391,5.814 -5.336,5.814Z" style="fill:rgb(76,81,109);fill-rule:nonzero;stroke:rgb(76,81,109);stroke-width:1px;"/>
        <path d="M134.437,506.33l-17.968,0c-1.329,0 -2.391,1.071 -2.391,2.391c0,1.32 1.062,2.391 2.391,2.391l17.968,0c1.33,0 2.391,-1.07 2.391,-2.391c-0.001,-1.32 -1.062,-2.391 -2.391,-2.391Z" style="fill:rgb(76,81,109);fill-rule:nonzero;stroke:rgb(76,81,109);stroke-width:1px;"/>
        <path d="M134.437,513.856l-17.968,0c-1.329,0 -2.391,1.07 -2.391,2.391c0,1.319 1.062,2.391 2.391,2.391l17.968,0c1.33,0 2.391,-1.071 2.391,-2.391c-0.001,-1.329 -1.062,-2.391 -2.391,-2.391Z" style="fill:rgb(76,81,109);fill-rule:nonzero;stroke:rgb(76,81,109);stroke-width:1px;"/>
        <path d="M134.437,521.496l-17.968,0c-1.329,0 -2.391,1.071 -2.391,2.391c0,1.32 1.062,2.391 2.391,2.391l17.968,0c1.33,0 2.391,-1.07 2.391,-2.391c-0.001,-1.32 -1.062,-2.391 -2.391,-2.391Z" style="fill:rgb(76,81,109);fill-rule:nonzero;stroke:rgb(76,81,109);stroke-width:1px;"/>
        <path d="M188.933,511.351c-1.262,0.01 -2.275,-0.784 -2.275,-1.769c0,-0.985 -2.314,-0.45 -5.164,1.195c-2.85,1.645 -2.85,4.312 0,5.957c2.85,1.645 5.164,2.181 5.164,1.186c0,-0.984 1.014,-1.798 2.257,-1.798l2.257,-0.009c2.036,-0.02 3.365,0.525 4.293,1.615c1.884,2.229 1.684,6.465 1.435,7.918c-0.114,0.65 0.048,1.281 0.401,1.779c0.593,0.841 2.448,1.08 3.309,0.535c0.536,-0.345 0.88,-0.87 0.995,-1.502c0.134,-0.755 1.176,-7.478 -2.486,-11.81c-1.291,-1.521 -3.701,-3.317 -7.898,-3.317c-0.031,0.001 -1.159,0.01 -2.288,0.02Z" style="fill:rgb(76,81,109);fill-rule:nonzero;stroke:rgb(76,81,109);stroke-width:1px;"/>
        <path d="M243.698,511.829c-0,5.135 4.169,9.304 9.305,9.304c0.325,0 0.631,-0.057 0.928,-0.134c0.497,-0.134 1.559,1.177 2.371,2.917l1.463,3.146c0.393,0.87 1.271,1.387 2.171,1.387c0.335,0 0.669,-0.066 1.014,-0.22c1.195,-0.555 1.721,-1.979 1.157,-3.175c-0,0 -0.66,-1.425 -1.473,-3.175c-0.813,-1.75 -0.067,-4.322 0.851,-6.272c0.536,-1.147 0.852,-2.42 0.852,-3.777c-0,-5.136 -4.188,-9.314 -9.323,-9.314c-5.156,0.008 -9.316,4.187 -9.316,9.313Zm9.304,4.523c-2.506,0 -4.523,-2.027 -4.523,-4.522c0,-2.496 2.018,-4.533 4.523,-4.533c2.505,0 4.542,2.027 4.542,4.533c-0.009,2.494 -2.046,4.522 -4.542,4.522Z" style="fill:rgb(76,81,109);fill-rule:nonzero;stroke:rgb(76,81,109);stroke-width:1px;"/>
    </g>
</svg>
