<?xml version="1.0" encoding="UTF-8" standalone="no"?>
<!DOCTYPE svg PUBLIC "-//W3C//DTD SVG 1.1//EN" "http://www.w3.org/Graphics/SVG/1.1/DTD/svg11.dtd">
<svg width="100%" height="100%" viewBox="0 0 65 65" version="1.1" xmlns="http://www.w3.org/2000/svg" xmlns:xlink="http://www.w3.org/1999/xlink" xml:space="preserve" xmlns:serif="http://www.serif.com/" style="fill-rule:evenodd;clip-rule:evenodd;stroke-linejoin:round;stroke-miterlimit:2;">
    <path id="Avatar" d="M64.484,32.235c-0,17.68 -14.334,32.014 -32.014,32.014c-17.681,-0 -32.014,-14.334 -32.014,-32.014c-0,-17.681 14.333,-32.014 32.014,-32.014c17.68,-0 32.014,14.333 32.014,32.014Zm-41.847,18.055c-0.735,0.197 -1.462,0.417 -2.185,0.645c-2.018,0.64 -4.011,1.354 -5.99,2.103c5.138,4.469 11.904,7.209 19.347,7.209c7.114,-0 13.622,-2.491 18.67,-6.611c-2.622,-1.184 -6.323,-2.378 -6.323,-2.378c-4.4,-0.822 -5.731,-1.802 -5.731,-1.802c-1.413,-0.626 -1.17,-6.54 -1.17,-6.54c2.179,-0.274 2.058,-6.776 2.058,-6.776c1.533,0.94 1.655,-1.018 1.655,-1.018c0.08,-0.744 0.484,-2.115 0.484,-2.115c1.494,-4.582 -0.687,-3.486 -0.687,-3.486c1.211,-4.465 0.687,-8.302 0.687,-8.302c-0.262,-1.91 -1.172,-3.499 -2.814,-4.609c-0.556,-0.376 -1.16,-0.685 -1.791,-0.923c-0.859,-0.324 -1.749,-0.762 -2.631,-0.997c-0.718,-0.193 -1.457,-0.306 -2.199,-0.377c-0.817,-0.076 -1.651,-0.112 -2.471,-0.066c-0.768,0 -1.131,0.471 -1.131,0.471c-0.116,0.148 -1.107,0.328 -1.335,0.432c-0.407,0.185 -0.803,0.392 -1.191,0.612c-0.984,0.562 -1.859,1.287 -2.775,1.944c-0.716,0.512 -1.625,0.856 -2.136,1.594c-0.446,0.646 -0.691,1.406 -0.83,2.164c-0.159,0.868 -0.26,1.894 -0.086,2.77c0.2,1.018 0.483,5.561 0.483,5.561c-1.614,-0.312 -0.726,1.998 -0.726,1.998c0.323,0.431 0.767,2.781 0.767,2.781c0.404,3.408 2.099,2.037 2.099,2.037c-0.283,6.031 1.816,6.344 1.816,6.344c0.282,3.524 -0.403,5.561 -0.403,5.561c-0.513,1.305 -2.268,1.454 -3.461,1.774Z" style="fill:url(#_Linear1);"/>
    <defs>
        <linearGradient id="_Linear1" x1="0" y1="0" x2="1" y2="0" gradientUnits="userSpaceOnUse" gradientTransform="matrix(3.551e-15,-57.9922,-57.9922,-3.551e-15,32.4699,64.2485)"><stop offset="0" style="stop-color:rgb(187,187,189);stop-opacity:1"/><stop offset="1" style="stop-color:rgb(102,101,106);stop-opacity:1"/></linearGradient>
    </defs>
</svg>
