<?xml version="1.0" encoding="UTF-8" standalone="no"?>
<!DOCTYPE svg PUBLIC "-//W3C//DTD SVG 1.1//EN" "http://www.w3.org/Graphics/SVG/1.1/DTD/svg11.dtd">
<svg width="100%" height="100%" viewBox="0 0 25 25" version="1.1" xmlns="http://www.w3.org/2000/svg" xmlns:xlink="http://www.w3.org/1999/xlink" xml:space="preserve" xmlns:serif="http://www.serif.com/" style="fill-rule:evenodd;clip-rule:evenodd;stroke-linejoin:round;stroke-miterlimit:2;">
    <path id="Cancel" d="M12.13,9.96l8.484,-8.484c0.782,-0.782 2.043,-0.788 2.83,-0.002c0.781,0.781 0.785,2.043 -0.002,2.83l-8.484,8.484l8.484,8.484c0.782,0.782 0.788,2.043 0.002,2.83c-0.781,0.781 -2.043,0.785 -2.83,-0.001l-8.484,-8.484l-8.484,8.484c-0.782,0.781 -2.043,0.787 -2.83,0.001c-0.781,-0.781 -0.785,-2.043 0.001,-2.83l8.484,-8.484l-8.484,-8.484c-0.781,-0.782 -0.787,-2.043 -0.001,-2.83c0.781,-0.781 2.043,-0.785 2.83,0.002l8.484,8.484Z"/>
</svg>
