<?xml version="1.0" encoding="UTF-8" standalone="no"?>
<svg
   enable-background="new 0 0 32 32"
   id="Слой_1"
   version="1.1"
   viewBox="0 0 32 32"
   xml:space="preserve"
   xmlns="http://www.w3.org/2000/svg"
   xmlns:svg="http://www.w3.org/2000/svg"><defs
     id="defs18" /><path
     clip-rule="evenodd"
     d="M0.291,16.749l14.944,14.944  c0.202,0.202,0.467,0.301,0.731,0.299c0.008,0,0.014,0.004,0.022,0.004h15c0.552,0,1-0.448,1-1c0-0.008-0.004-0.014-0.004-0.022  c0.002-0.264-0.097-0.529-0.299-0.731L17.438,15.997L31.715,1.721c0.401-0.401,0.401-1.051,0-1.452  c-0.238-0.238-0.561-0.317-0.87-0.273l-14.711,0c-0.309-0.044-0.632,0.035-0.87,0.273L0.292,15.24  c-0.208,0.208-0.303,0.482-0.295,0.755C-0.011,16.267,0.083,16.541,0.291,16.749z M16.44,1.996h12.096L15.292,15.24  c-0.208,0.208-0.303,0.482-0.295,0.755c-0.008,0.272,0.087,0.546,0.295,0.754l13.247,13.247H16.437L2.438,15.997L16.44,1.996z"
     fill="#121313"
     fill-rule="evenodd"
     id="Border_Arrow_Left"
     style="fill:#aa4200;fill-opacity:1;stroke-width:5;stroke-miterlimit:4;stroke-dasharray:none;stroke:none;stroke-opacity:1" /><g
     id="g3" /><g
     id="g5" /><g
     id="g7" /><g
     id="g9" /><g
     id="g11" /><g
     id="g13" /></svg>
