<?xml version="1.0" encoding="UTF-8" standalone="no"?>
<!DOCTYPE svg PUBLIC "-//W3C//DTD SVG 1.1//EN" "http://www.w3.org/Graphics/SVG/1.1/DTD/svg11.dtd">
<svg width="100%" height="100%" viewBox="0 0 40 384" version="1.1" xmlns="http://www.w3.org/2000/svg" xmlns:xlink="http://www.w3.org/1999/xlink" xml:space="preserve" xmlns:serif="http://www.serif.com/" style="fill-rule:evenodd;clip-rule:evenodd;stroke-linejoin:round;stroke-miterlimit:2;">
    <path id="Back" d="M2.88,22.857l36.12,167.532l-36.12,170.754l-6.88,-32.218l29.24,-138.536l-29.24,-135.314l6.88,-32.218Z" style="fill:rgb(46,29,125);fill-rule:nonzero;"/>
    <path d="M0.56,131.511c0,-1.418 0.277,-2.582 0.832,-3.494c0.555,-0.911 1.499,-1.367 2.832,-1.367c0.907,-0 1.661,0.249 2.264,0.749c0.603,0.499 1.043,1.139 1.32,1.92c0.277,0.782 0.416,1.599 0.416,2.453c-0,0.608 -0.051,1.161 -0.152,1.66c-0.101,0.499 -0.275,1.06 -0.52,1.682l-1.424,-1.024c0.171,-0.465 0.288,-0.857 0.352,-1.177c0.064,-0.319 0.096,-0.639 0.096,-0.958c-0,-0.683 -0.195,-1.231 -0.584,-1.646c-0.389,-0.414 -0.973,-0.621 -1.752,-0.621c-0.736,0 -1.245,0.207 -1.528,0.621c-0.283,0.414 -0.424,0.955 -0.424,1.624c-0,0.406 0.048,0.787 0.144,1.143c0.096,0.356 0.235,0.752 0.416,1.188l-1.392,1.046c-0.597,-1.259 -0.896,-2.525 -0.896,-3.799Z" style="fill:rgb(255,234,39);fill-rule:nonzero;"/>
    <path d="M0.784,137.979l11.008,0l0.208,2.93l-11.216,0l-0,-2.93Z" style="fill:rgb(255,234,39);fill-rule:nonzero;"/>
    <path d="M9.056,146.031c-0,-0.332 0.061,-0.644 0.184,-0.933c0.123,-0.289 0.285,-0.521 0.488,-0.694c0.203,-0.174 0.427,-0.261 0.672,-0.261c0.245,0 0.472,0.087 0.68,0.261c0.208,0.173 0.373,0.405 0.496,0.694c0.123,0.289 0.184,0.601 0.184,0.933c-0,0.348 -0.061,0.67 -0.184,0.966c-0.123,0.297 -0.288,0.532 -0.496,0.706c-0.208,0.173 -0.435,0.26 -0.68,0.26c-0.245,-0 -0.469,-0.087 -0.672,-0.26c-0.203,-0.174 -0.365,-0.409 -0.488,-0.706c-0.123,-0.296 -0.184,-0.618 -0.184,-0.966Zm-8.272,-1.41l7.152,-0l0.208,2.93l-7.36,-0l-0,-2.93Z" style="fill:rgb(255,234,39);fill-rule:nonzero;"/>
    <path d="M0.56,155.494c0,-1.418 0.277,-2.583 0.832,-3.494c0.555,-0.912 1.499,-1.367 2.832,-1.367c0.907,-0 1.661,0.249 2.264,0.748c0.603,0.499 1.043,1.14 1.32,1.921c0.277,0.781 0.416,1.599 0.416,2.453c-0,0.607 -0.051,1.161 -0.152,1.66c-0.101,0.499 -0.275,1.06 -0.52,1.682l-1.424,-1.024c0.171,-0.465 0.288,-0.857 0.352,-1.177c0.064,-0.32 0.096,-0.639 0.096,-0.959c-0,-0.682 -0.195,-1.231 -0.584,-1.645c-0.389,-0.414 -0.973,-0.621 -1.752,-0.621c-0.736,0 -1.245,0.207 -1.528,0.621c-0.283,0.414 -0.424,0.955 -0.424,1.623c-0,0.407 0.048,0.788 0.144,1.144c0.096,0.356 0.235,0.752 0.416,1.187l-1.392,1.046c-0.597,-1.258 -0.896,-2.525 -0.896,-3.798Z" style="fill:rgb(255,234,39);fill-rule:nonzero;"/>
    <path d="M4.688,167.974l-3.776,3.776l-0.128,0l-0,-3.461l3.584,-3.419l-3.584,0l-0,-2.93l11.008,0l0.208,2.93l-7.248,0l3.232,3.549l-0,3.136l-0.112,0l-3.184,-3.581Z" style="fill:rgb(255,234,39);fill-rule:nonzero;"/>
    <path d="M1.088,186.748c-0.352,-0.851 -0.528,-1.802 -0.528,-2.855c0,-0.533 0.077,-1.027 0.232,-1.481c0.155,-0.454 0.403,-0.825 0.744,-1.114c0.341,-0.288 0.773,-0.432 1.296,-0.432l3.44,-0l-0,-1.78l1.712,0l-0,1.78l1.616,-0l0.304,2.93l-1.92,-0l-0,2.713l-1.712,-0.304l-0,-2.409l-3.104,-0c-0.32,-0 -0.544,0.076 -0.672,0.228c-0.128,0.152 -0.192,0.365 -0.192,0.64c-0,0.203 0.019,0.398 0.056,0.586c0.037,0.188 0.099,0.42 0.184,0.695l-1.456,0.803Z" style="fill:rgb(255,234,39);fill-rule:nonzero;"/>
    <path d="M0.56,193.519c0,-1.085 0.171,-2.007 0.512,-2.767c0.341,-0.76 0.803,-1.328 1.384,-1.704c0.581,-0.376 1.229,-0.564 1.944,-0.564c0.917,-0 1.659,0.242 2.224,0.727c0.565,0.485 0.973,1.125 1.224,1.921c0.251,0.796 0.376,1.686 0.376,2.669c-0,1.1 -0.163,2.03 -0.488,2.789c-0.325,0.76 -0.776,1.328 -1.352,1.704c-0.576,0.376 -1.243,0.564 -2,0.564c-0.885,0 -1.613,-0.235 -2.184,-0.705c-0.571,-0.47 -0.987,-1.107 -1.248,-1.91c-0.261,-0.803 -0.392,-1.711 -0.392,-2.724Zm1.616,0.163c-0,0.785 0.2,1.338 0.6,1.658c0.4,0.32 0.941,0.48 1.624,0.48c0.725,-0 1.275,-0.171 1.648,-0.513c0.373,-0.341 0.56,-0.869 0.56,-1.581c-0,-0.771 -0.184,-1.331 -0.552,-1.68c-0.368,-0.349 -0.92,-0.523 -1.656,-0.523c-0.693,-0 -1.237,0.178 -1.632,0.534c-0.395,0.356 -0.592,0.898 -0.592,1.625Z" style="fill:rgb(255,234,39);fill-rule:nonzero;"/>
    <path d="M0.56,212.163c0,-1.418 0.277,-2.583 0.832,-3.494c0.555,-0.912 1.499,-1.368 2.832,-1.368c0.907,0 1.661,0.25 2.264,0.749c0.603,0.499 1.043,1.139 1.32,1.921c0.277,0.781 0.416,1.599 0.416,2.452c-0,0.608 -0.051,1.161 -0.152,1.661c-0.101,0.499 -0.275,1.06 -0.52,1.682l-1.424,-1.024c0.171,-0.465 0.288,-0.858 0.352,-1.177c0.064,-0.32 0.096,-0.639 0.096,-0.959c-0,-0.683 -0.195,-1.231 -0.584,-1.645c-0.389,-0.414 -0.973,-0.621 -1.752,-0.621c-0.736,-0 -1.245,0.207 -1.528,0.621c-0.283,0.414 -0.424,0.955 -0.424,1.623c-0,0.407 0.048,0.788 0.144,1.144c0.096,0.356 0.235,0.751 0.416,1.187l-1.392,1.046c-0.597,-1.259 -0.896,-2.525 -0.896,-3.798Z" style="fill:rgb(255,234,39);fill-rule:nonzero;"/>
    <path d="M0.784,218.631l11.008,-0l0.208,2.93l-11.216,-0l-0,-2.93Z" style="fill:rgb(255,234,39);fill-rule:nonzero;"/>
    <path d="M0.56,229.678c0,-1.085 0.171,-2.008 0.512,-2.767c0.341,-0.76 0.803,-1.328 1.384,-1.704c0.581,-0.376 1.229,-0.564 1.944,-0.564c0.917,-0 1.659,0.242 2.224,0.727c0.565,0.484 0.973,1.125 1.224,1.92c0.251,0.796 0.376,1.686 0.376,2.67c-0,1.1 -0.163,2.029 -0.488,2.789c-0.325,0.76 -0.776,1.327 -1.352,1.704c-0.576,0.376 -1.243,0.564 -2,0.564c-0.885,-0 -1.613,-0.235 -2.184,-0.705c-0.571,-0.471 -0.987,-1.107 -1.248,-1.91c-0.261,-0.803 -0.392,-1.711 -0.392,-2.724Zm1.616,0.163c-0,0.785 0.2,1.338 0.6,1.658c0.4,0.319 0.941,0.479 1.624,0.479c0.725,0 1.275,-0.17 1.648,-0.512c0.373,-0.342 0.56,-0.869 0.56,-1.582c-0,-0.77 -0.184,-1.33 -0.552,-1.679c-0.368,-0.349 -0.92,-0.524 -1.656,-0.524c-0.693,0 -1.237,0.178 -1.632,0.535c-0.395,0.356 -0.592,0.898 -0.592,1.625Z" style="fill:rgb(255,234,39);fill-rule:nonzero;"/>
    <path d="M0.56,241.572c0,-0.927 0.083,-1.755 0.248,-2.486c0.165,-0.73 0.413,-1.414 0.744,-2.051l1.392,1.242c-0.288,0.537 -0.493,1.082 -0.616,1.634c-0.123,0.552 -0.184,1.082 -0.184,1.59c-0,0.48 0.053,0.832 0.16,1.057c0.107,0.225 0.251,0.337 0.432,0.337c0.117,0 0.221,-0.043 0.312,-0.13c0.091,-0.087 0.181,-0.265 0.272,-0.534c0.091,-0.269 0.189,-0.665 0.296,-1.188l0.128,-0.632c0.213,-1.046 0.491,-1.798 0.832,-2.255c0.341,-0.458 0.805,-0.687 1.392,-0.687c0.448,0 0.843,0.167 1.184,0.5c0.341,0.332 0.605,0.803 0.792,1.41c0.187,0.608 0.28,1.303 0.28,2.084c-0,1.476 -0.261,2.814 -0.784,4.015l-1.392,-1.143c0.224,-0.601 0.379,-1.107 0.464,-1.517c0.085,-0.41 0.128,-0.85 0.128,-1.319c-0,-0.367 -0.048,-0.641 -0.144,-0.825c-0.096,-0.183 -0.219,-0.274 -0.368,-0.274c-0.107,-0 -0.195,0.036 -0.264,0.109c-0.069,0.074 -0.133,0.209 -0.192,0.407c-0.059,0.198 -0.131,0.509 -0.216,0.933l-0.144,0.725c-0.213,1.128 -0.512,1.952 -0.896,2.472c-0.384,0.52 -0.869,0.779 -1.456,0.779c-0.459,0 -0.869,-0.155 -1.232,-0.466c-0.363,-0.311 -0.648,-0.789 -0.856,-1.433c-0.208,-0.644 -0.312,-1.428 -0.312,-2.354Z" style="fill:rgb(255,234,39);fill-rule:nonzero;"/>
    <path d="M5.04,257.35c-0.213,0 -0.587,-0.029 -1.12,-0.087l-0,-6.25c-0.597,0.086 -1.037,0.354 -1.32,0.803c-0.283,0.448 -0.424,0.984 -0.424,1.606c-0,0.463 0.048,0.911 0.144,1.345c0.096,0.435 0.251,0.898 0.464,1.389l-1.312,0.999c-0.288,-0.521 -0.512,-1.122 -0.672,-1.802c-0.16,-0.68 -0.24,-1.418 -0.24,-2.213c0,-0.955 0.128,-1.813 0.384,-2.572c0.256,-0.76 0.664,-1.368 1.224,-1.823c0.56,-0.456 1.283,-0.684 2.168,-0.684c0.811,-0 1.509,0.192 2.096,0.575c0.587,0.384 1.032,0.941 1.336,1.671c0.304,0.731 0.456,1.596 0.456,2.594c-0,0.955 -0.139,1.769 -0.416,2.442c-0.277,0.672 -0.656,1.175 -1.136,1.508c-0.48,0.333 -1.024,0.499 -1.632,0.499Zm1.712,-4.455c-0,-0.487 -0.115,-0.88 -0.344,-1.179c-0.229,-0.3 -0.589,-0.505 -1.08,-0.617l-0,3.321l0.048,0c0.491,0 0.843,-0.139 1.056,-0.417c0.213,-0.279 0.32,-0.648 0.32,-1.108Z" style="fill:rgb(255,234,39);fill-rule:nonzero;"/>
</svg>
