<?xml version="1.0" encoding="UTF-8" standalone="no"?>
<!DOCTYPE svg PUBLIC "-//W3C//DTD SVG 1.1//EN" "http://www.w3.org/Graphics/SVG/1.1/DTD/svg11.dtd">
<svg width="100%" height="100%" viewBox="0 0 161 161" version="1.1" xmlns="http://www.w3.org/2000/svg" xmlns:xlink="http://www.w3.org/1999/xlink" xml:space="preserve" xmlns:serif="http://www.serif.com/" style="fill-rule:evenodd;clip-rule:evenodd;stroke-linejoin:round;stroke-miterlimit:2;">
    <g id="Options-with-bg" serif:id="Options with bg">
        <circle cx="80.228" cy="80.032" r="80" style="fill:rgb(61,61,61);"/>
        <path d="M62.228,59.532c0,-1.933 1.558,-3.5 3.502,-3.5l46.997,0c1.934,0 3.501,1.554 3.501,3.5c0,1.933 -1.557,3.5 -3.501,3.5l-46.997,0c-1.934,0 -3.502,-1.553 -3.502,-3.5Zm-13,4.5c-2.761,0 -5,-2.238 -5,-5c0,-2.761 2.239,-5 5,-5c2.762,0 5,2.239 5,5c0,2.762 -2.238,5 -5,5Zm0,22c-2.761,0 -5,-2.238 -5,-5c0,-2.761 2.239,-5 5,-5c2.762,0 5,2.239 5,5c0,2.762 -2.238,5 -5,5Zm0,20c-2.761,0 -5,-2.238 -5,-5c0,-2.761 2.239,-5 5,-5c2.762,0 5,2.239 5,5c0,2.762 -2.238,5 -5,5Zm13,-25.5c0,-1.933 1.558,-3.5 3.502,-3.5l46.997,0c1.934,0 3.501,1.554 3.501,3.5c0,1.933 -1.557,3.5 -3.501,3.5l-46.997,0c-1.934,0 -3.502,-1.553 -3.502,-3.5Zm0,21c0,-1.933 1.558,-3.5 3.502,-3.5l46.997,0c1.934,0 3.501,1.554 3.501,3.5c0,1.933 -1.557,3.5 -3.501,3.5l-46.997,0c-1.934,0 -3.502,-1.553 -3.502,-3.5Z" style="fill:white;"/>
    </g>
</svg>
