<?xml version="1.0" encoding="UTF-8" standalone="no"?>
<!DOCTYPE svg PUBLIC "-//W3C//DTD SVG 1.1//EN" "http://www.w3.org/Graphics/SVG/1.1/DTD/svg11.dtd">
<svg width="100%" height="100%" viewBox="0 0 37 36" version="1.1" xmlns="http://www.w3.org/2000/svg" xmlns:xlink="http://www.w3.org/1999/xlink" xml:space="preserve" xmlns:serif="http://www.serif.com/" style="fill-rule:evenodd;clip-rule:evenodd;stroke-linejoin:round;stroke-miterlimit:2;">
    <g id="Search">
        <path d="M23.225,25.343c-0.95,0.712 -1.991,1.304 -3.091,1.754c-1.676,0.685 -3.481,1.035 -5.291,1.035c-1.81,0 -3.615,-0.35 -5.29,-1.035c-1.616,-0.661 -3.104,-1.628 -4.367,-2.832c-1.22,-1.163 -2.229,-2.546 -2.961,-4.064c-0.625,-1.296 -1.046,-2.688 -1.246,-4.113c-0.214,-1.527 -0.176,-3.089 0.115,-4.604c0.237,-1.238 0.644,-2.443 1.206,-3.573c0.7,-1.408 1.639,-2.696 2.765,-3.794c1.126,-1.1 2.437,-2.009 3.863,-2.676c1.199,-0.56 2.477,-0.947 3.785,-1.147c0.646,-0.099 1.297,-0.148 1.95,-0.161c0.18,-0.001 0.18,-0.001 0.361,0c0.653,0.013 1.303,0.062 1.949,0.161c1.308,0.2 2.586,0.587 3.785,1.147c1.477,0.691 2.83,1.641 3.983,2.794c1.113,1.112 2.037,2.412 2.72,3.829c0.574,1.19 0.977,2.462 1.193,3.765c0.233,1.406 0.251,2.848 0.053,4.259c-0.2,1.425 -0.621,2.817 -1.246,4.113c-0.393,0.814 -0.865,1.59 -1.407,2.314l10.203,10.203l-2.828,2.829l-10.204,-10.204Zm-8.537,-23.21c-0.56,0.011 -1.118,0.053 -1.672,0.138c-1.12,0.171 -2.215,0.503 -3.241,0.982c-1.223,0.572 -2.347,1.352 -3.313,2.295c-0.965,0.942 -1.771,2.046 -2.371,3.254c-0.481,0.967 -0.83,1.999 -1.033,3.059c-0.249,1.299 -0.282,2.64 -0.098,3.95c0.171,1.22 0.532,2.411 1.067,3.521c0.627,1.302 1.493,2.488 2.539,3.485c1.083,1.033 2.358,1.862 3.744,2.428c1.436,0.587 2.982,0.887 4.533,0.887c1.551,0 3.098,-0.3 4.534,-0.887c1.385,-0.566 2.66,-1.395 3.743,-2.428c1.047,-0.997 1.912,-2.183 2.54,-3.485c0.535,-1.11 0.895,-2.301 1.067,-3.522c0.183,-1.309 0.15,-2.65 -0.099,-3.949c-0.194,-1.013 -0.521,-1.999 -0.968,-2.928c-0.586,-1.216 -1.379,-2.33 -2.333,-3.284c-0.989,-0.989 -2.149,-1.804 -3.416,-2.396c-1.026,-0.479 -2.121,-0.811 -3.24,-0.982c-0.555,-0.085 -1.112,-0.127 -1.673,-0.138c-0.155,-0.001 -0.155,-0.001 -0.31,0Z"/>
    </g>
</svg>
